<?xml version="1.0" encoding="utf-8" standalone="no"?>
<!DOCTYPE svg PUBLIC "-//W3C//DTD SVG 1.1//EN"
  "http://www.w3.org/Graphics/SVG/1.1/DTD/svg11.dtd">
<svg xmlns:xlink="http://www.w3.org/1999/xlink" width="619.2pt" height="388.8pt" viewBox="0 0 619.2 388.8" xmlns="http://www.w3.org/2000/svg" version="1.1">
 <metadata>
  <rdf:RDF xmlns:dc="http://purl.org/dc/elements/1.1/" xmlns:cc="http://creativecommons.org/ns#" xmlns:rdf="http://www.w3.org/1999/02/22-rdf-syntax-ns#">
   <cc:Work>
    <dc:type rdf:resource="http://purl.org/dc/dcmitype/StillImage"/>
    <dc:date>2026-08-10T11:24:05.367331</dc:date>
    <dc:format>image/svg+xml</dc:format>
    <dc:creator>
     <cc:Agent>
      <dc:title>Matplotlib v3.10.9, https://matplotlib.org/</dc:title>
     </cc:Agent>
    </dc:creator>
   </cc:Work>
  </rdf:RDF>
 </metadata>
 <defs>
  <style type="text/css">*{stroke-linejoin: round; stroke-linecap: butt}</style>
 </defs>
 <g id="figure_1">
  <g id="patch_1">
   <path d="M 0 388.8 
L 619.2 388.8 
L 619.2 0 
L 0 0 
z
" style="fill: #fcfcfb"/>
  </g>
  <g id="axes_1">
   <g id="patch_2">
    <path d="M 123.549844 347.64375 
L 608.4 347.64375 
L 608.4 31.158281 
L 123.549844 31.158281 
z
" style="fill: #fcfcfb"/>
   </g>
   <g id="matplotlib.axis_1">
    <g id="xtick_1">
     <g id="line2d_1">
      <path d="M 176.442588 347.64375 
L 176.442588 31.158281 
" clip-path="url(#pf85956dec2)" style="fill: none; stroke: #e1e0d9; stroke-width: 0.8; stroke-linecap: square"/>
     </g>
     <g id="line2d_2">
      <defs>
       <path id="md67b6d24eb" d="M 0 0 
L 0 3.5 
" style="stroke: #898781; stroke-width: 0.8"/>
      </defs>
      <g>
       <use xlink:href="#md67b6d24eb" x="176.442588" y="347.64375" style="fill: #898781; stroke: #898781; stroke-width: 0.8"/>
      </g>
     </g>
     <g id="text_1">
      <text style="font-size: 10px; font-family: 'DejaVu Sans', sans-serif; text-anchor: middle; fill: #898781" x="176.442588" y="362.242188" transform="rotate(-0 176.442588 362.242188)">5</text>
     </g>
    </g>
    <g id="xtick_2">
     <g id="line2d_3">
      <path d="M 264.597162 347.64375 
L 264.597162 31.158281 
" clip-path="url(#pf85956dec2)" style="fill: none; stroke: #e1e0d9; stroke-width: 0.8; stroke-linecap: square"/>
     </g>
     <g id="line2d_4">
      <g>
       <use xlink:href="#md67b6d24eb" x="264.597162" y="347.64375" style="fill: #898781; stroke: #898781; stroke-width: 0.8"/>
      </g>
     </g>
     <g id="text_2">
      <text style="font-size: 10px; font-family: 'DejaVu Sans', sans-serif; text-anchor: middle; fill: #898781" x="264.597162" y="362.242188" transform="rotate(-0 264.597162 362.242188)">10</text>
     </g>
    </g>
    <g id="xtick_3">
     <g id="line2d_5">
      <path d="M 352.751736 347.64375 
L 352.751736 31.158281 
" clip-path="url(#pf85956dec2)" style="fill: none; stroke: #e1e0d9; stroke-width: 0.8; stroke-linecap: square"/>
     </g>
     <g id="line2d_6">
      <g>
       <use xlink:href="#md67b6d24eb" x="352.751736" y="347.64375" style="fill: #898781; stroke: #898781; stroke-width: 0.8"/>
      </g>
     </g>
     <g id="text_3">
      <text style="font-size: 10px; font-family: 'DejaVu Sans', sans-serif; text-anchor: middle; fill: #898781" x="352.751736" y="362.242188" transform="rotate(-0 352.751736 362.242188)">15</text>
     </g>
    </g>
    <g id="xtick_4">
     <g id="line2d_7">
      <path d="M 440.90631 347.64375 
L 440.90631 31.158281 
" clip-path="url(#pf85956dec2)" style="fill: none; stroke: #e1e0d9; stroke-width: 0.8; stroke-linecap: square"/>
     </g>
     <g id="line2d_8">
      <g>
       <use xlink:href="#md67b6d24eb" x="440.90631" y="347.64375" style="fill: #898781; stroke: #898781; stroke-width: 0.8"/>
      </g>
     </g>
     <g id="text_4">
      <text style="font-size: 10px; font-family: 'DejaVu Sans', sans-serif; text-anchor: middle; fill: #898781" x="440.90631" y="362.242188" transform="rotate(-0 440.90631 362.242188)">20</text>
     </g>
    </g>
    <g id="xtick_5">
     <g id="line2d_9">
      <path d="M 529.060884 347.64375 
L 529.060884 31.158281 
" clip-path="url(#pf85956dec2)" style="fill: none; stroke: #e1e0d9; stroke-width: 0.8; stroke-linecap: square"/>
     </g>
     <g id="line2d_10">
      <g>
       <use xlink:href="#md67b6d24eb" x="529.060884" y="347.64375" style="fill: #898781; stroke: #898781; stroke-width: 0.8"/>
      </g>
     </g>
     <g id="text_5">
      <text style="font-size: 10px; font-family: 'DejaVu Sans', sans-serif; text-anchor: middle; fill: #898781" x="529.060884" y="362.242188" transform="rotate(-0 529.060884 362.242188)">25</text>
     </g>
    </g>
    <g id="text_6">
     <text style="font-size: 10px; font-family: 'DejaVu Sans', sans-serif; text-anchor: middle; fill: #52514e" x="365.974922" y="375.920313" transform="rotate(-0 365.974922 375.920313)">inferred anomaly onset (day)</text>
    </g>
   </g>
   <g id="matplotlib.axis_2">
    <g id="ytick_1">
     <g id="text_7">
      <text style="font-size: 9.5px; font-family: 'DejaVu Sans', sans-serif; fill: #52514e" transform="translate(10.8 329.073372)">change-point detector</text>
      <text style="font-size: 9.5px; font-family: 'DejaVu Sans', sans-serif; fill: #52514e" transform="translate(37.346562 339.711294)">on sonnet's data</text>
     </g>
    </g>
    <g id="ytick_2">
     <g id="text_8">
      <text style="font-size: 9.5px; font-family: 'DejaVu Sans', sans-serif; fill: #52514e" transform="translate(10.8 278.837584)">change-point detector</text>
      <text style="font-size: 9.5px; font-family: 'DejaVu Sans', sans-serif; fill: #52514e" transform="translate(44.012891 289.475506)">on haiku's data</text>
     </g>
    </g>
    <g id="ytick_3">
     <g id="text_9">
      <text style="font-size: 9.5px; font-family: 'DejaVu Sans', sans-serif; text-anchor: end; fill: #52514e" x="116.549844" y="233.198904" transform="rotate(-0 116.549844 233.198904)">sonnet, no prior (B3b)</text>
     </g>
    </g>
    <g id="ytick_4">
     <g id="text_10">
      <text style="font-size: 9.5px; font-family: 'DejaVu Sans', sans-serif; text-anchor: end; fill: #52514e" x="116.549844" y="182.963116" transform="rotate(-0 116.549844 182.963116)">sonar-pro (B3a)</text>
     </g>
    </g>
    <g id="ytick_5">
     <g id="text_11">
      <text style="font-size: 9.5px; font-family: 'DejaVu Sans', sans-serif; text-anchor: end; fill: #52514e" x="116.549844" y="132.727327" transform="rotate(-0 116.549844 132.727327)">sonnet (B2)</text>
     </g>
    </g>
    <g id="ytick_6">
     <g id="text_12">
      <text style="font-size: 9.5px; font-family: 'DejaVu Sans', sans-serif; text-anchor: end; fill: #52514e" x="116.549844" y="82.491538" transform="rotate(-0 116.549844 82.491538)">haiku (B1)</text>
     </g>
    </g>
   </g>
   <g id="line2d_11">
    <path d="M 299.858991 347.64375 
L 299.858991 31.158281 
" clip-path="url(#pf85956dec2)" style="fill: none; stroke-dasharray: 5.6,4.2; stroke-dashoffset: 0; stroke: #0b0b0b; stroke-width: 1.4"/>
   </g>
   <g id="patch_3">
    <path d="M 123.549844 347.64375 
L 608.4 347.64375 
" style="fill: none; stroke: #c3c2b7; stroke-linejoin: miter; stroke-linecap: square"/>
   </g>
   <g id="PathCollection_1">
    <defs>
     <path id="m9951c7507c" d="M 0 3.391165 
C 0.899347 3.391165 1.761981 3.03385 2.397916 2.397916 
C 3.03385 1.761981 3.391165 0.899347 3.391165 0 
C 3.391165 -0.899347 3.03385 -1.761981 2.397916 -2.397916 
C 1.761981 -3.03385 0.899347 -3.391165 0 -3.391165 
C -0.899347 -3.391165 -1.761981 -3.03385 -2.397916 -2.397916 
C -3.03385 -1.761981 -3.391165 -0.899347 -3.391165 0 
C -3.391165 0.899347 -3.03385 1.761981 -2.397916 2.397916 
C -1.761981 3.03385 -0.899347 3.391165 0 3.391165 
z
" style="stroke: #fcfcfb; stroke-width: 1.2"/>
    </defs>
    <g clip-path="url(#pf85956dec2)">
     <use xlink:href="#m9951c7507c" x="158.811673" y="78.882281" style="fill: #2a78d6; stroke: #fcfcfb; stroke-width: 1.2"/>
    </g>
   </g>
   <g id="PathCollection_2">
    <g clip-path="url(#pf85956dec2)">
     <use xlink:href="#m9951c7507c" x="194.073503" y="78.882281" style="fill: #2a78d6; stroke: #fcfcfb; stroke-width: 1.2"/>
    </g>
   </g>
   <g id="PathCollection_3">
    <g clip-path="url(#pf85956dec2)">
     <use xlink:href="#m9951c7507c" x="211.704418" y="78.882281" style="fill: #2a78d6; stroke: #fcfcfb; stroke-width: 1.2"/>
    </g>
   </g>
   <g id="PathCollection_4">
    <g clip-path="url(#pf85956dec2)">
     <use xlink:href="#m9951c7507c" x="211.704418" y="74.612238" style="fill: #2a78d6; stroke: #fcfcfb; stroke-width: 1.2"/>
    </g>
   </g>
   <g id="PathCollection_5">
    <g clip-path="url(#pf85956dec2)">
     <use xlink:href="#m9951c7507c" x="211.704418" y="70.342196" style="fill: #2a78d6; stroke: #fcfcfb; stroke-width: 1.2"/>
    </g>
   </g>
   <g id="PathCollection_6">
    <g clip-path="url(#pf85956dec2)">
     <use xlink:href="#m9951c7507c" x="229.335332" y="78.882281" style="fill: #2a78d6; stroke: #fcfcfb; stroke-width: 1.2"/>
    </g>
   </g>
   <g id="PathCollection_7">
    <g clip-path="url(#pf85956dec2)">
     <use xlink:href="#m9951c7507c" x="246.966247" y="78.882281" style="fill: #2a78d6; stroke: #fcfcfb; stroke-width: 1.2"/>
    </g>
   </g>
   <g id="PathCollection_8">
    <g clip-path="url(#pf85956dec2)">
     <use xlink:href="#m9951c7507c" x="246.966247" y="74.612238" style="fill: #2a78d6; stroke: #fcfcfb; stroke-width: 1.2"/>
    </g>
   </g>
   <g id="PathCollection_9">
    <g clip-path="url(#pf85956dec2)">
     <use xlink:href="#m9951c7507c" x="264.597162" y="78.882281" style="fill: #2a78d6; stroke: #fcfcfb; stroke-width: 1.2"/>
    </g>
   </g>
   <g id="PathCollection_10">
    <g clip-path="url(#pf85956dec2)">
     <use xlink:href="#m9951c7507c" x="264.597162" y="74.612238" style="fill: #2a78d6; stroke: #fcfcfb; stroke-width: 1.2"/>
    </g>
   </g>
   <g id="PathCollection_11">
    <g clip-path="url(#pf85956dec2)">
     <use xlink:href="#m9951c7507c" x="264.597162" y="70.342196" style="fill: #2a78d6; stroke: #fcfcfb; stroke-width: 1.2"/>
    </g>
   </g>
   <g id="PathCollection_12">
    <g clip-path="url(#pf85956dec2)">
     <use xlink:href="#m9951c7507c" x="264.597162" y="66.072154" style="fill: #2a78d6; stroke: #fcfcfb; stroke-width: 1.2"/>
    </g>
   </g>
   <g id="PathCollection_13">
    <g clip-path="url(#pf85956dec2)">
     <use xlink:href="#m9951c7507c" x="264.597162" y="61.802112" style="fill: #2a78d6; stroke: #fcfcfb; stroke-width: 1.2"/>
    </g>
   </g>
   <g id="PathCollection_14">
    <g clip-path="url(#pf85956dec2)">
     <use xlink:href="#m9951c7507c" x="264.597162" y="57.53207" style="fill: #2a78d6; stroke: #fcfcfb; stroke-width: 1.2"/>
    </g>
   </g>
   <g id="PathCollection_15">
    <g clip-path="url(#pf85956dec2)">
     <use xlink:href="#m9951c7507c" x="282.228077" y="78.882281" style="fill: #2a78d6; stroke: #fcfcfb; stroke-width: 1.2"/>
    </g>
   </g>
   <g id="PathCollection_16">
    <g clip-path="url(#pf85956dec2)">
     <use xlink:href="#m9951c7507c" x="299.858991" y="78.882281" style="fill: #2a78d6; stroke: #fcfcfb; stroke-width: 1.2"/>
    </g>
   </g>
   <g id="PathCollection_17">
    <g clip-path="url(#pf85956dec2)">
     <use xlink:href="#m9951c7507c" x="405.64448" y="78.882281" style="fill: #2a78d6; stroke: #fcfcfb; stroke-width: 1.2"/>
    </g>
   </g>
   <g id="PathCollection_18">
    <g clip-path="url(#pf85956dec2)">
     <use xlink:href="#m9951c7507c" x="458.537224" y="78.882281" style="fill: #2a78d6; stroke: #fcfcfb; stroke-width: 1.2"/>
    </g>
   </g>
   <g id="PathCollection_19">
    <g clip-path="url(#pf85956dec2)">
     <use xlink:href="#m9951c7507c" x="493.799054" y="78.882281" style="fill: #2a78d6; stroke: #fcfcfb; stroke-width: 1.2"/>
    </g>
   </g>
   <g id="PathCollection_20">
    <g clip-path="url(#pf85956dec2)">
     <use xlink:href="#m9951c7507c" x="229.335332" y="129.118069" style="fill: #2a78d6; stroke: #fcfcfb; stroke-width: 1.2"/>
    </g>
   </g>
   <g id="PathCollection_21">
    <g clip-path="url(#pf85956dec2)">
     <use xlink:href="#m9951c7507c" x="229.335332" y="124.848027" style="fill: #2a78d6; stroke: #fcfcfb; stroke-width: 1.2"/>
    </g>
   </g>
   <g id="PathCollection_22">
    <g clip-path="url(#pf85956dec2)">
     <use xlink:href="#m9951c7507c" x="246.966247" y="129.118069" style="fill: #2a78d6; stroke: #fcfcfb; stroke-width: 1.2"/>
    </g>
   </g>
   <g id="PathCollection_23">
    <g clip-path="url(#pf85956dec2)">
     <use xlink:href="#m9951c7507c" x="264.597162" y="129.118069" style="fill: #2a78d6; stroke: #fcfcfb; stroke-width: 1.2"/>
    </g>
   </g>
   <g id="PathCollection_24">
    <g clip-path="url(#pf85956dec2)">
     <use xlink:href="#m9951c7507c" x="264.597162" y="124.848027" style="fill: #2a78d6; stroke: #fcfcfb; stroke-width: 1.2"/>
    </g>
   </g>
   <g id="PathCollection_25">
    <g clip-path="url(#pf85956dec2)">
     <use xlink:href="#m9951c7507c" x="264.597162" y="120.577985" style="fill: #2a78d6; stroke: #fcfcfb; stroke-width: 1.2"/>
    </g>
   </g>
   <g id="PathCollection_26">
    <g clip-path="url(#pf85956dec2)">
     <use xlink:href="#m9951c7507c" x="264.597162" y="116.307943" style="fill: #2a78d6; stroke: #fcfcfb; stroke-width: 1.2"/>
    </g>
   </g>
   <g id="PathCollection_27">
    <g clip-path="url(#pf85956dec2)">
     <use xlink:href="#m9951c7507c" x="264.597162" y="112.037901" style="fill: #2a78d6; stroke: #fcfcfb; stroke-width: 1.2"/>
    </g>
   </g>
   <g id="PathCollection_28">
    <g clip-path="url(#pf85956dec2)">
     <use xlink:href="#m9951c7507c" x="264.597162" y="107.767859" style="fill: #2a78d6; stroke: #fcfcfb; stroke-width: 1.2"/>
    </g>
   </g>
   <g id="PathCollection_29">
    <g clip-path="url(#pf85956dec2)">
     <use xlink:href="#m9951c7507c" x="282.228077" y="129.118069" style="fill: #2a78d6; stroke: #fcfcfb; stroke-width: 1.2"/>
    </g>
   </g>
   <g id="PathCollection_30">
    <g clip-path="url(#pf85956dec2)">
     <use xlink:href="#m9951c7507c" x="282.228077" y="124.848027" style="fill: #2a78d6; stroke: #fcfcfb; stroke-width: 1.2"/>
    </g>
   </g>
   <g id="PathCollection_31">
    <g clip-path="url(#pf85956dec2)">
     <use xlink:href="#m9951c7507c" x="282.228077" y="120.577985" style="fill: #2a78d6; stroke: #fcfcfb; stroke-width: 1.2"/>
    </g>
   </g>
   <g id="PathCollection_32">
    <g clip-path="url(#pf85956dec2)">
     <use xlink:href="#m9951c7507c" x="282.228077" y="116.307943" style="fill: #2a78d6; stroke: #fcfcfb; stroke-width: 1.2"/>
    </g>
   </g>
   <g id="PathCollection_33">
    <g clip-path="url(#pf85956dec2)">
     <use xlink:href="#m9951c7507c" x="282.228077" y="112.037901" style="fill: #2a78d6; stroke: #fcfcfb; stroke-width: 1.2"/>
    </g>
   </g>
   <g id="PathCollection_34">
    <g clip-path="url(#pf85956dec2)">
     <use xlink:href="#m9951c7507c" x="282.228077" y="107.767859" style="fill: #2a78d6; stroke: #fcfcfb; stroke-width: 1.2"/>
    </g>
   </g>
   <g id="PathCollection_35">
    <g clip-path="url(#pf85956dec2)">
     <use xlink:href="#m9951c7507c" x="282.228077" y="103.497817" style="fill: #2a78d6; stroke: #fcfcfb; stroke-width: 1.2"/>
    </g>
   </g>
   <g id="PathCollection_36">
    <g clip-path="url(#pf85956dec2)">
     <use xlink:href="#m9951c7507c" x="282.228077" y="99.227775" style="fill: #2a78d6; stroke: #fcfcfb; stroke-width: 1.2"/>
    </g>
   </g>
   <g id="PathCollection_37">
    <g clip-path="url(#pf85956dec2)">
     <use xlink:href="#m9951c7507c" x="370.382651" y="129.118069" style="fill: #2a78d6; stroke: #fcfcfb; stroke-width: 1.2"/>
    </g>
   </g>
   <g id="PathCollection_38">
    <g clip-path="url(#pf85956dec2)">
     <use xlink:href="#m9951c7507c" x="476.168139" y="129.118069" style="fill: #2a78d6; stroke: #fcfcfb; stroke-width: 1.2"/>
    </g>
   </g>
   <g id="PathCollection_39">
    <g clip-path="url(#pf85956dec2)">
     <use xlink:href="#m9951c7507c" x="581.953628" y="129.118069" style="fill: #2a78d6; stroke: #fcfcfb; stroke-width: 1.2"/>
    </g>
   </g>
   <g id="PathCollection_40">
    <g clip-path="url(#pf85956dec2)">
     <use xlink:href="#m9951c7507c" x="194.073503" y="179.353858" style="fill: #2a78d6; stroke: #fcfcfb; stroke-width: 1.2"/>
    </g>
   </g>
   <g id="PathCollection_41">
    <g clip-path="url(#pf85956dec2)">
     <use xlink:href="#m9951c7507c" x="229.335332" y="179.353858" style="fill: #2a78d6; stroke: #fcfcfb; stroke-width: 1.2"/>
    </g>
   </g>
   <g id="PathCollection_42">
    <g clip-path="url(#pf85956dec2)">
     <use xlink:href="#m9951c7507c" x="229.335332" y="175.083816" style="fill: #2a78d6; stroke: #fcfcfb; stroke-width: 1.2"/>
    </g>
   </g>
   <g id="PathCollection_43">
    <g clip-path="url(#pf85956dec2)">
     <use xlink:href="#m9951c7507c" x="229.335332" y="170.813774" style="fill: #2a78d6; stroke: #fcfcfb; stroke-width: 1.2"/>
    </g>
   </g>
   <g id="PathCollection_44">
    <g clip-path="url(#pf85956dec2)">
     <use xlink:href="#m9951c7507c" x="264.597162" y="179.353858" style="fill: #2a78d6; stroke: #fcfcfb; stroke-width: 1.2"/>
    </g>
   </g>
   <g id="PathCollection_45">
    <g clip-path="url(#pf85956dec2)">
     <use xlink:href="#m9951c7507c" x="264.597162" y="175.083816" style="fill: #2a78d6; stroke: #fcfcfb; stroke-width: 1.2"/>
    </g>
   </g>
   <g id="PathCollection_46">
    <g clip-path="url(#pf85956dec2)">
     <use xlink:href="#m9951c7507c" x="264.597162" y="170.813774" style="fill: #2a78d6; stroke: #fcfcfb; stroke-width: 1.2"/>
    </g>
   </g>
   <g id="PathCollection_47">
    <g clip-path="url(#pf85956dec2)">
     <use xlink:href="#m9951c7507c" x="264.597162" y="166.543732" style="fill: #2a78d6; stroke: #fcfcfb; stroke-width: 1.2"/>
    </g>
   </g>
   <g id="PathCollection_48">
    <g clip-path="url(#pf85956dec2)">
     <use xlink:href="#m9951c7507c" x="282.228077" y="179.353858" style="fill: #2a78d6; stroke: #fcfcfb; stroke-width: 1.2"/>
    </g>
   </g>
   <g id="PathCollection_49">
    <g clip-path="url(#pf85956dec2)">
     <use xlink:href="#m9951c7507c" x="299.858991" y="179.353858" style="fill: #2a78d6; stroke: #fcfcfb; stroke-width: 1.2"/>
    </g>
   </g>
   <g id="PathCollection_50">
    <g clip-path="url(#pf85956dec2)">
     <use xlink:href="#m9951c7507c" x="511.429969" y="179.353858" style="fill: #2a78d6; stroke: #fcfcfb; stroke-width: 1.2"/>
    </g>
   </g>
   <g id="PathCollection_51">
    <g clip-path="url(#pf85956dec2)">
     <use xlink:href="#m9951c7507c" x="229.335332" y="229.589647" style="fill: #2a78d6; stroke: #fcfcfb; stroke-width: 1.2"/>
    </g>
   </g>
   <g id="PathCollection_52">
    <g clip-path="url(#pf85956dec2)">
     <use xlink:href="#m9951c7507c" x="229.335332" y="225.319605" style="fill: #2a78d6; stroke: #fcfcfb; stroke-width: 1.2"/>
    </g>
   </g>
   <g id="PathCollection_53">
    <g clip-path="url(#pf85956dec2)">
     <use xlink:href="#m9951c7507c" x="246.966247" y="229.589647" style="fill: #2a78d6; stroke: #fcfcfb; stroke-width: 1.2"/>
    </g>
   </g>
   <g id="PathCollection_54">
    <g clip-path="url(#pf85956dec2)">
     <use xlink:href="#m9951c7507c" x="264.597162" y="229.589647" style="fill: #2a78d6; stroke: #fcfcfb; stroke-width: 1.2"/>
    </g>
   </g>
   <g id="PathCollection_55">
    <g clip-path="url(#pf85956dec2)">
     <use xlink:href="#m9951c7507c" x="264.597162" y="225.319605" style="fill: #2a78d6; stroke: #fcfcfb; stroke-width: 1.2"/>
    </g>
   </g>
   <g id="PathCollection_56">
    <g clip-path="url(#pf85956dec2)">
     <use xlink:href="#m9951c7507c" x="264.597162" y="221.049563" style="fill: #2a78d6; stroke: #fcfcfb; stroke-width: 1.2"/>
    </g>
   </g>
   <g id="PathCollection_57">
    <g clip-path="url(#pf85956dec2)">
     <use xlink:href="#m9951c7507c" x="264.597162" y="216.77952" style="fill: #2a78d6; stroke: #fcfcfb; stroke-width: 1.2"/>
    </g>
   </g>
   <g id="PathCollection_58">
    <g clip-path="url(#pf85956dec2)">
     <use xlink:href="#m9951c7507c" x="282.228077" y="229.589647" style="fill: #2a78d6; stroke: #fcfcfb; stroke-width: 1.2"/>
    </g>
   </g>
   <g id="PathCollection_59">
    <g clip-path="url(#pf85956dec2)">
     <use xlink:href="#m9951c7507c" x="282.228077" y="225.319605" style="fill: #2a78d6; stroke: #fcfcfb; stroke-width: 1.2"/>
    </g>
   </g>
   <g id="PathCollection_60">
    <g clip-path="url(#pf85956dec2)">
     <use xlink:href="#m9951c7507c" x="282.228077" y="221.049563" style="fill: #2a78d6; stroke: #fcfcfb; stroke-width: 1.2"/>
    </g>
   </g>
   <g id="PathCollection_61">
    <g clip-path="url(#pf85956dec2)">
     <use xlink:href="#m9951c7507c" x="282.228077" y="216.77952" style="fill: #2a78d6; stroke: #fcfcfb; stroke-width: 1.2"/>
    </g>
   </g>
   <g id="PathCollection_62">
    <g clip-path="url(#pf85956dec2)">
     <use xlink:href="#m9951c7507c" x="282.228077" y="212.509478" style="fill: #2a78d6; stroke: #fcfcfb; stroke-width: 1.2"/>
    </g>
   </g>
   <g id="PathCollection_63">
    <g clip-path="url(#pf85956dec2)">
     <use xlink:href="#m9951c7507c" x="282.228077" y="208.239436" style="fill: #2a78d6; stroke: #fcfcfb; stroke-width: 1.2"/>
    </g>
   </g>
   <g id="PathCollection_64">
    <g clip-path="url(#pf85956dec2)">
     <use xlink:href="#m9951c7507c" x="282.228077" y="203.969394" style="fill: #2a78d6; stroke: #fcfcfb; stroke-width: 1.2"/>
    </g>
   </g>
   <g id="PathCollection_65">
    <g clip-path="url(#pf85956dec2)">
     <use xlink:href="#m9951c7507c" x="282.228077" y="199.699352" style="fill: #2a78d6; stroke: #fcfcfb; stroke-width: 1.2"/>
    </g>
   </g>
   <g id="PathCollection_66">
    <g clip-path="url(#pf85956dec2)">
     <use xlink:href="#m9951c7507c" x="299.858991" y="229.589647" style="fill: #2a78d6; stroke: #fcfcfb; stroke-width: 1.2"/>
    </g>
   </g>
   <g id="PathCollection_67">
    <g clip-path="url(#pf85956dec2)">
     <use xlink:href="#m9951c7507c" x="352.751736" y="229.589647" style="fill: #2a78d6; stroke: #fcfcfb; stroke-width: 1.2"/>
    </g>
   </g>
   <g id="PathCollection_68">
    <g clip-path="url(#pf85956dec2)">
     <use xlink:href="#m9951c7507c" x="511.429969" y="229.589647" style="fill: #2a78d6; stroke: #fcfcfb; stroke-width: 1.2"/>
    </g>
   </g>
   <g id="PathCollection_69">
    <path d="M 141.180759 283.2166 
C 142.080106 283.2166 142.94274 282.859286 143.578674 282.223351 
C 144.214609 281.587416 144.571924 280.724783 144.571924 279.825435 
C 144.571924 278.926088 144.214609 278.063454 143.578674 277.42752 
C 142.94274 276.791585 142.080106 276.43427 141.180759 276.43427 
C 140.281411 276.43427 139.418777 276.791585 138.782843 277.42752 
C 138.146908 278.063454 137.789594 278.926088 137.789594 279.825435 
C 137.789594 280.724783 138.146908 281.587416 138.782843 282.223351 
C 139.418777 282.859286 140.281411 283.2166 141.180759 283.2166 
L 141.180759 283.2166 
z
" clip-path="url(#pf85956dec2)" style="fill: none; stroke: #eb6834; stroke-width: 1.4"/>
   </g>
   <g id="PathCollection_70">
    <path d="M 141.180759 278.946558 
C 142.080106 278.946558 142.94274 278.589244 143.578674 277.953309 
C 144.214609 277.317374 144.571924 276.454741 144.571924 275.555393 
C 144.571924 274.656046 144.214609 273.793412 143.578674 273.157477 
C 142.94274 272.521543 142.080106 272.164228 141.180759 272.164228 
C 140.281411 272.164228 139.418777 272.521543 138.782843 273.157477 
C 138.146908 273.793412 137.789594 274.656046 137.789594 275.555393 
C 137.789594 276.454741 138.146908 277.317374 138.782843 277.953309 
C 139.418777 278.589244 140.281411 278.946558 141.180759 278.946558 
L 141.180759 278.946558 
z
" clip-path="url(#pf85956dec2)" style="fill: none; stroke: #eb6834; stroke-width: 1.4"/>
   </g>
   <g id="PathCollection_71">
    <path d="M 176.442588 283.2166 
C 177.341936 283.2166 178.204569 282.859286 178.840504 282.223351 
C 179.476439 281.587416 179.833753 280.724783 179.833753 279.825435 
C 179.833753 278.926088 179.476439 278.063454 178.840504 277.42752 
C 178.204569 276.791585 177.341936 276.43427 176.442588 276.43427 
C 175.543241 276.43427 174.680607 276.791585 174.044672 277.42752 
C 173.408738 278.063454 173.051423 278.926088 173.051423 279.825435 
C 173.051423 280.724783 173.408738 281.587416 174.044672 282.223351 
C 174.680607 282.859286 175.543241 283.2166 176.442588 283.2166 
L 176.442588 283.2166 
z
" clip-path="url(#pf85956dec2)" style="fill: none; stroke: #eb6834; stroke-width: 1.4"/>
   </g>
   <g id="PathCollection_72">
    <path d="M 194.073503 283.2166 
C 194.97285 283.2166 195.835484 282.859286 196.471419 282.223351 
C 197.107353 281.587416 197.464668 280.724783 197.464668 279.825435 
C 197.464668 278.926088 197.107353 278.063454 196.471419 277.42752 
C 195.835484 276.791585 194.97285 276.43427 194.073503 276.43427 
C 193.174155 276.43427 192.311522 276.791585 191.675587 277.42752 
C 191.039652 278.063454 190.682338 278.926088 190.682338 279.825435 
C 190.682338 280.724783 191.039652 281.587416 191.675587 282.223351 
C 192.311522 282.859286 193.174155 283.2166 194.073503 283.2166 
L 194.073503 283.2166 
z
" clip-path="url(#pf85956dec2)" style="fill: none; stroke: #eb6834; stroke-width: 1.4"/>
   </g>
   <g id="PathCollection_73">
    <path d="M 211.704418 283.2166 
C 212.603765 283.2166 213.466399 282.859286 214.102333 282.223351 
C 214.738268 281.587416 215.095583 280.724783 215.095583 279.825435 
C 215.095583 278.926088 214.738268 278.063454 214.102333 277.42752 
C 213.466399 276.791585 212.603765 276.43427 211.704418 276.43427 
C 210.80507 276.43427 209.942437 276.791585 209.306502 277.42752 
C 208.670567 278.063454 208.313253 278.926088 208.313253 279.825435 
C 208.313253 280.724783 208.670567 281.587416 209.306502 282.223351 
C 209.942437 282.859286 210.80507 283.2166 211.704418 283.2166 
L 211.704418 283.2166 
z
" clip-path="url(#pf85956dec2)" style="fill: none; stroke: #eb6834; stroke-width: 1.4"/>
   </g>
   <g id="PathCollection_74">
    <path d="M 246.966247 283.2166 
C 247.865595 283.2166 248.728228 282.859286 249.364163 282.223351 
C 250.000098 281.587416 250.357412 280.724783 250.357412 279.825435 
C 250.357412 278.926088 250.000098 278.063454 249.364163 277.42752 
C 248.728228 276.791585 247.865595 276.43427 246.966247 276.43427 
C 246.0669 276.43427 245.204266 276.791585 244.568331 277.42752 
C 243.932397 278.063454 243.575082 278.926088 243.575082 279.825435 
C 243.575082 280.724783 243.932397 281.587416 244.568331 282.223351 
C 245.204266 282.859286 246.0669 283.2166 246.966247 283.2166 
L 246.966247 283.2166 
z
" clip-path="url(#pf85956dec2)" style="fill: none; stroke: #eb6834; stroke-width: 1.4"/>
   </g>
   <g id="PathCollection_75">
    <path d="M 246.966247 278.946558 
C 247.865595 278.946558 248.728228 278.589244 249.364163 277.953309 
C 250.000098 277.317374 250.357412 276.454741 250.357412 275.555393 
C 250.357412 274.656046 250.000098 273.793412 249.364163 273.157477 
C 248.728228 272.521543 247.865595 272.164228 246.966247 272.164228 
C 246.0669 272.164228 245.204266 272.521543 244.568331 273.157477 
C 243.932397 273.793412 243.575082 274.656046 243.575082 275.555393 
C 243.575082 276.454741 243.932397 277.317374 244.568331 277.953309 
C 245.204266 278.589244 246.0669 278.946558 246.966247 278.946558 
L 246.966247 278.946558 
z
" clip-path="url(#pf85956dec2)" style="fill: none; stroke: #eb6834; stroke-width: 1.4"/>
   </g>
   <g id="PathCollection_76">
    <path d="M 264.597162 283.2166 
C 265.496509 283.2166 266.359143 282.859286 266.995078 282.223351 
C 267.631012 281.587416 267.988327 280.724783 267.988327 279.825435 
C 267.988327 278.926088 267.631012 278.063454 266.995078 277.42752 
C 266.359143 276.791585 265.496509 276.43427 264.597162 276.43427 
C 263.697814 276.43427 262.835181 276.791585 262.199246 277.42752 
C 261.563311 278.063454 261.205997 278.926088 261.205997 279.825435 
C 261.205997 280.724783 261.563311 281.587416 262.199246 282.223351 
C 262.835181 282.859286 263.697814 283.2166 264.597162 283.2166 
L 264.597162 283.2166 
z
" clip-path="url(#pf85956dec2)" style="fill: none; stroke: #eb6834; stroke-width: 1.4"/>
   </g>
   <g id="PathCollection_77">
    <path d="M 264.597162 278.946558 
C 265.496509 278.946558 266.359143 278.589244 266.995078 277.953309 
C 267.631012 277.317374 267.988327 276.454741 267.988327 275.555393 
C 267.988327 274.656046 267.631012 273.793412 266.995078 273.157477 
C 266.359143 272.521543 265.496509 272.164228 264.597162 272.164228 
C 263.697814 272.164228 262.835181 272.521543 262.199246 273.157477 
C 261.563311 273.793412 261.205997 274.656046 261.205997 275.555393 
C 261.205997 276.454741 261.563311 277.317374 262.199246 277.953309 
C 262.835181 278.589244 263.697814 278.946558 264.597162 278.946558 
L 264.597162 278.946558 
z
" clip-path="url(#pf85956dec2)" style="fill: none; stroke: #eb6834; stroke-width: 1.4"/>
   </g>
   <g id="PathCollection_78">
    <path d="M 264.597162 274.676516 
C 265.496509 274.676516 266.359143 274.319202 266.995078 273.683267 
C 267.631012 273.047332 267.988327 272.184699 267.988327 271.285351 
C 267.988327 270.386004 267.631012 269.52337 266.995078 268.887435 
C 266.359143 268.251501 265.496509 267.894186 264.597162 267.894186 
C 263.697814 267.894186 262.835181 268.251501 262.199246 268.887435 
C 261.563311 269.52337 261.205997 270.386004 261.205997 271.285351 
C 261.205997 272.184699 261.563311 273.047332 262.199246 273.683267 
C 262.835181 274.319202 263.697814 274.676516 264.597162 274.676516 
L 264.597162 274.676516 
z
" clip-path="url(#pf85956dec2)" style="fill: none; stroke: #eb6834; stroke-width: 1.4"/>
   </g>
   <g id="PathCollection_79">
    <path d="M 282.228077 283.2166 
C 283.127424 283.2166 283.990058 282.859286 284.625992 282.223351 
C 285.261927 281.587416 285.619242 280.724783 285.619242 279.825435 
C 285.619242 278.926088 285.261927 278.063454 284.625992 277.42752 
C 283.990058 276.791585 283.127424 276.43427 282.228077 276.43427 
C 281.328729 276.43427 280.466096 276.791585 279.830161 277.42752 
C 279.194226 278.063454 278.836912 278.926088 278.836912 279.825435 
C 278.836912 280.724783 279.194226 281.587416 279.830161 282.223351 
C 280.466096 282.859286 281.328729 283.2166 282.228077 283.2166 
L 282.228077 283.2166 
z
" clip-path="url(#pf85956dec2)" style="fill: none; stroke: #eb6834; stroke-width: 1.4"/>
   </g>
   <g id="PathCollection_80">
    <path d="M 282.228077 278.946558 
C 283.127424 278.946558 283.990058 278.589244 284.625992 277.953309 
C 285.261927 277.317374 285.619242 276.454741 285.619242 275.555393 
C 285.619242 274.656046 285.261927 273.793412 284.625992 273.157477 
C 283.990058 272.521543 283.127424 272.164228 282.228077 272.164228 
C 281.328729 272.164228 280.466096 272.521543 279.830161 273.157477 
C 279.194226 273.793412 278.836912 274.656046 278.836912 275.555393 
C 278.836912 276.454741 279.194226 277.317374 279.830161 277.953309 
C 280.466096 278.589244 281.328729 278.946558 282.228077 278.946558 
L 282.228077 278.946558 
z
" clip-path="url(#pf85956dec2)" style="fill: none; stroke: #eb6834; stroke-width: 1.4"/>
   </g>
   <g id="PathCollection_81">
    <path d="M 282.228077 274.676516 
C 283.127424 274.676516 283.990058 274.319202 284.625992 273.683267 
C 285.261927 273.047332 285.619242 272.184699 285.619242 271.285351 
C 285.619242 270.386004 285.261927 269.52337 284.625992 268.887435 
C 283.990058 268.251501 283.127424 267.894186 282.228077 267.894186 
C 281.328729 267.894186 280.466096 268.251501 279.830161 268.887435 
C 279.194226 269.52337 278.836912 270.386004 278.836912 271.285351 
C 278.836912 272.184699 279.194226 273.047332 279.830161 273.683267 
C 280.466096 274.319202 281.328729 274.676516 282.228077 274.676516 
L 282.228077 274.676516 
z
" clip-path="url(#pf85956dec2)" style="fill: none; stroke: #eb6834; stroke-width: 1.4"/>
   </g>
   <g id="PathCollection_82">
    <path d="M 299.858991 283.2166 
C 300.758339 283.2166 301.620973 282.859286 302.256907 282.223351 
C 302.892842 281.587416 303.250156 280.724783 303.250156 279.825435 
C 303.250156 278.926088 302.892842 278.063454 302.256907 277.42752 
C 301.620973 276.791585 300.758339 276.43427 299.858991 276.43427 
C 298.959644 276.43427 298.09701 276.791585 297.461076 277.42752 
C 296.825141 278.063454 296.467826 278.926088 296.467826 279.825435 
C 296.467826 280.724783 296.825141 281.587416 297.461076 282.223351 
C 298.09701 282.859286 298.959644 283.2166 299.858991 283.2166 
L 299.858991 283.2166 
z
" clip-path="url(#pf85956dec2)" style="fill: none; stroke: #eb6834; stroke-width: 1.4"/>
   </g>
   <g id="PathCollection_83">
    <path d="M 299.858991 278.946558 
C 300.758339 278.946558 301.620973 278.589244 302.256907 277.953309 
C 302.892842 277.317374 303.250156 276.454741 303.250156 275.555393 
C 303.250156 274.656046 302.892842 273.793412 302.256907 273.157477 
C 301.620973 272.521543 300.758339 272.164228 299.858991 272.164228 
C 298.959644 272.164228 298.09701 272.521543 297.461076 273.157477 
C 296.825141 273.793412 296.467826 274.656046 296.467826 275.555393 
C 296.467826 276.454741 296.825141 277.317374 297.461076 277.953309 
C 298.09701 278.589244 298.959644 278.946558 299.858991 278.946558 
L 299.858991 278.946558 
z
" clip-path="url(#pf85956dec2)" style="fill: none; stroke: #eb6834; stroke-width: 1.4"/>
   </g>
   <g id="PathCollection_84">
    <path d="M 299.858991 274.676516 
C 300.758339 274.676516 301.620973 274.319202 302.256907 273.683267 
C 302.892842 273.047332 303.250156 272.184699 303.250156 271.285351 
C 303.250156 270.386004 302.892842 269.52337 302.256907 268.887435 
C 301.620973 268.251501 300.758339 267.894186 299.858991 267.894186 
C 298.959644 267.894186 298.09701 268.251501 297.461076 268.887435 
C 296.825141 269.52337 296.467826 270.386004 296.467826 271.285351 
C 296.467826 272.184699 296.825141 273.047332 297.461076 273.683267 
C 298.09701 274.319202 298.959644 274.676516 299.858991 274.676516 
L 299.858991 274.676516 
z
" clip-path="url(#pf85956dec2)" style="fill: none; stroke: #eb6834; stroke-width: 1.4"/>
   </g>
   <g id="PathCollection_85">
    <path d="M 335.120821 283.2166 
C 336.020168 283.2166 336.882802 282.859286 337.518737 282.223351 
C 338.154671 281.587416 338.511986 280.724783 338.511986 279.825435 
C 338.511986 278.926088 338.154671 278.063454 337.518737 277.42752 
C 336.882802 276.791585 336.020168 276.43427 335.120821 276.43427 
C 334.221474 276.43427 333.35884 276.791585 332.722905 277.42752 
C 332.086971 278.063454 331.729656 278.926088 331.729656 279.825435 
C 331.729656 280.724783 332.086971 281.587416 332.722905 282.223351 
C 333.35884 282.859286 334.221474 283.2166 335.120821 283.2166 
L 335.120821 283.2166 
z
" clip-path="url(#pf85956dec2)" style="fill: none; stroke: #eb6834; stroke-width: 1.4"/>
   </g>
   <g id="PathCollection_86">
    <path d="M 352.751736 283.2166 
C 353.651083 283.2166 354.513717 282.859286 355.149652 282.223351 
C 355.785586 281.587416 356.142901 280.724783 356.142901 279.825435 
C 356.142901 278.926088 355.785586 278.063454 355.149652 277.42752 
C 354.513717 276.791585 353.651083 276.43427 352.751736 276.43427 
C 351.852388 276.43427 350.989755 276.791585 350.35382 277.42752 
C 349.717885 278.063454 349.360571 278.926088 349.360571 279.825435 
C 349.360571 280.724783 349.717885 281.587416 350.35382 282.223351 
C 350.989755 282.859286 351.852388 283.2166 352.751736 283.2166 
L 352.751736 283.2166 
z
" clip-path="url(#pf85956dec2)" style="fill: none; stroke: #eb6834; stroke-width: 1.4"/>
   </g>
   <g id="PathCollection_87">
    <path d="M 370.382651 283.2166 
C 371.281998 283.2166 372.144632 282.859286 372.780566 282.223351 
C 373.416501 281.587416 373.773816 280.724783 373.773816 279.825435 
C 373.773816 278.926088 373.416501 278.063454 372.780566 277.42752 
C 372.144632 276.791585 371.281998 276.43427 370.382651 276.43427 
C 369.483303 276.43427 368.62067 276.791585 367.984735 277.42752 
C 367.3488 278.063454 366.991486 278.926088 366.991486 279.825435 
C 366.991486 280.724783 367.3488 281.587416 367.984735 282.223351 
C 368.62067 282.859286 369.483303 283.2166 370.382651 283.2166 
L 370.382651 283.2166 
z
" clip-path="url(#pf85956dec2)" style="fill: none; stroke: #eb6834; stroke-width: 1.4"/>
   </g>
   <g id="PathCollection_88">
    <path d="M 476.168139 283.2166 
C 477.067487 283.2166 477.93012 282.859286 478.566055 282.223351 
C 479.20199 281.587416 479.559304 280.724783 479.559304 279.825435 
C 479.559304 278.926088 479.20199 278.063454 478.566055 277.42752 
C 477.93012 276.791585 477.067487 276.43427 476.168139 276.43427 
C 475.268792 276.43427 474.406158 276.791585 473.770223 277.42752 
C 473.134289 278.063454 472.776974 278.926088 472.776974 279.825435 
C 472.776974 280.724783 473.134289 281.587416 473.770223 282.223351 
C 474.406158 282.859286 475.268792 283.2166 476.168139 283.2166 
L 476.168139 283.2166 
z
" clip-path="url(#pf85956dec2)" style="fill: none; stroke: #eb6834; stroke-width: 1.4"/>
   </g>
   <g id="PathCollection_89">
    <path d="M 158.811673 333.452389 
C 159.711021 333.452389 160.573654 333.095074 161.209589 332.45914 
C 161.845524 331.823205 162.202838 330.960571 162.202838 330.061224 
C 162.202838 329.161876 161.845524 328.299243 161.209589 327.663308 
C 160.573654 327.027374 159.711021 326.670059 158.811673 326.670059 
C 157.912326 326.670059 157.049692 327.027374 156.413758 327.663308 
C 155.777823 328.299243 155.420508 329.161876 155.420508 330.061224 
C 155.420508 330.960571 155.777823 331.823205 156.413758 332.45914 
C 157.049692 333.095074 157.912326 333.452389 158.811673 333.452389 
L 158.811673 333.452389 
z
" clip-path="url(#pf85956dec2)" style="fill: none; stroke: #eb6834; stroke-width: 1.4"/>
   </g>
   <g id="PathCollection_90">
    <path d="M 176.442588 333.452389 
C 177.341936 333.452389 178.204569 333.095074 178.840504 332.45914 
C 179.476439 331.823205 179.833753 330.960571 179.833753 330.061224 
C 179.833753 329.161876 179.476439 328.299243 178.840504 327.663308 
C 178.204569 327.027374 177.341936 326.670059 176.442588 326.670059 
C 175.543241 326.670059 174.680607 327.027374 174.044672 327.663308 
C 173.408738 328.299243 173.051423 329.161876 173.051423 330.061224 
C 173.051423 330.960571 173.408738 331.823205 174.044672 332.45914 
C 174.680607 333.095074 175.543241 333.452389 176.442588 333.452389 
L 176.442588 333.452389 
z
" clip-path="url(#pf85956dec2)" style="fill: none; stroke: #eb6834; stroke-width: 1.4"/>
   </g>
   <g id="PathCollection_91">
    <path d="M 211.704418 333.452389 
C 212.603765 333.452389 213.466399 333.095074 214.102333 332.45914 
C 214.738268 331.823205 215.095583 330.960571 215.095583 330.061224 
C 215.095583 329.161876 214.738268 328.299243 214.102333 327.663308 
C 213.466399 327.027374 212.603765 326.670059 211.704418 326.670059 
C 210.80507 326.670059 209.942437 327.027374 209.306502 327.663308 
C 208.670567 328.299243 208.313253 329.161876 208.313253 330.061224 
C 208.313253 330.960571 208.670567 331.823205 209.306502 332.45914 
C 209.942437 333.095074 210.80507 333.452389 211.704418 333.452389 
L 211.704418 333.452389 
z
" clip-path="url(#pf85956dec2)" style="fill: none; stroke: #eb6834; stroke-width: 1.4"/>
   </g>
   <g id="PathCollection_92">
    <path d="M 229.335332 333.452389 
C 230.23468 333.452389 231.097313 333.095074 231.733248 332.45914 
C 232.369183 331.823205 232.726497 330.960571 232.726497 330.061224 
C 232.726497 329.161876 232.369183 328.299243 231.733248 327.663308 
C 231.097313 327.027374 230.23468 326.670059 229.335332 326.670059 
C 228.435985 326.670059 227.573351 327.027374 226.937417 327.663308 
C 226.301482 328.299243 225.944167 329.161876 225.944167 330.061224 
C 225.944167 330.960571 226.301482 331.823205 226.937417 332.45914 
C 227.573351 333.095074 228.435985 333.452389 229.335332 333.452389 
L 229.335332 333.452389 
z
" clip-path="url(#pf85956dec2)" style="fill: none; stroke: #eb6834; stroke-width: 1.4"/>
   </g>
   <g id="PathCollection_93">
    <path d="M 229.335332 329.182347 
C 230.23468 329.182347 231.097313 328.825032 231.733248 328.189098 
C 232.369183 327.553163 232.726497 326.690529 232.726497 325.791182 
C 232.726497 324.891834 232.369183 324.029201 231.733248 323.393266 
C 231.097313 322.757331 230.23468 322.400017 229.335332 322.400017 
C 228.435985 322.400017 227.573351 322.757331 226.937417 323.393266 
C 226.301482 324.029201 225.944167 324.891834 225.944167 325.791182 
C 225.944167 326.690529 226.301482 327.553163 226.937417 328.189098 
C 227.573351 328.825032 228.435985 329.182347 229.335332 329.182347 
L 229.335332 329.182347 
z
" clip-path="url(#pf85956dec2)" style="fill: none; stroke: #eb6834; stroke-width: 1.4"/>
   </g>
   <g id="PathCollection_94">
    <path d="M 282.228077 333.452389 
C 283.127424 333.452389 283.990058 333.095074 284.625992 332.45914 
C 285.261927 331.823205 285.619242 330.960571 285.619242 330.061224 
C 285.619242 329.161876 285.261927 328.299243 284.625992 327.663308 
C 283.990058 327.027374 283.127424 326.670059 282.228077 326.670059 
C 281.328729 326.670059 280.466096 327.027374 279.830161 327.663308 
C 279.194226 328.299243 278.836912 329.161876 278.836912 330.061224 
C 278.836912 330.960571 279.194226 331.823205 279.830161 332.45914 
C 280.466096 333.095074 281.328729 333.452389 282.228077 333.452389 
L 282.228077 333.452389 
z
" clip-path="url(#pf85956dec2)" style="fill: none; stroke: #eb6834; stroke-width: 1.4"/>
   </g>
   <g id="PathCollection_95">
    <path d="M 299.858991 333.452389 
C 300.758339 333.452389 301.620973 333.095074 302.256907 332.45914 
C 302.892842 331.823205 303.250156 330.960571 303.250156 330.061224 
C 303.250156 329.161876 302.892842 328.299243 302.256907 327.663308 
C 301.620973 327.027374 300.758339 326.670059 299.858991 326.670059 
C 298.959644 326.670059 298.09701 327.027374 297.461076 327.663308 
C 296.825141 328.299243 296.467826 329.161876 296.467826 330.061224 
C 296.467826 330.960571 296.825141 331.823205 297.461076 332.45914 
C 298.09701 333.095074 298.959644 333.452389 299.858991 333.452389 
L 299.858991 333.452389 
z
" clip-path="url(#pf85956dec2)" style="fill: none; stroke: #eb6834; stroke-width: 1.4"/>
   </g>
   <g id="PathCollection_96">
    <path d="M 299.858991 329.182347 
C 300.758339 329.182347 301.620973 328.825032 302.256907 328.189098 
C 302.892842 327.553163 303.250156 326.690529 303.250156 325.791182 
C 303.250156 324.891834 302.892842 324.029201 302.256907 323.393266 
C 301.620973 322.757331 300.758339 322.400017 299.858991 322.400017 
C 298.959644 322.400017 298.09701 322.757331 297.461076 323.393266 
C 296.825141 324.029201 296.467826 324.891834 296.467826 325.791182 
C 296.467826 326.690529 296.825141 327.553163 297.461076 328.189098 
C 298.09701 328.825032 298.959644 329.182347 299.858991 329.182347 
L 299.858991 329.182347 
z
" clip-path="url(#pf85956dec2)" style="fill: none; stroke: #eb6834; stroke-width: 1.4"/>
   </g>
   <g id="PathCollection_97">
    <path d="M 299.858991 324.912305 
C 300.758339 324.912305 301.620973 324.55499 302.256907 323.919056 
C 302.892842 323.283121 303.250156 322.420487 303.250156 321.52114 
C 303.250156 320.621792 302.892842 319.759159 302.256907 319.123224 
C 301.620973 318.487289 300.758339 318.129975 299.858991 318.129975 
C 298.959644 318.129975 298.09701 318.487289 297.461076 319.123224 
C 296.825141 319.759159 296.467826 320.621792 296.467826 321.52114 
C 296.467826 322.420487 296.825141 323.283121 297.461076 323.919056 
C 298.09701 324.55499 298.959644 324.912305 299.858991 324.912305 
L 299.858991 324.912305 
z
" clip-path="url(#pf85956dec2)" style="fill: none; stroke: #eb6834; stroke-width: 1.4"/>
   </g>
   <g id="PathCollection_98">
    <path d="M 299.858991 320.642263 
C 300.758339 320.642263 301.620973 320.284948 302.256907 319.649014 
C 302.892842 319.013079 303.250156 318.150445 303.250156 317.251098 
C 303.250156 316.35175 302.892842 315.489117 302.256907 314.853182 
C 301.620973 314.217247 300.758339 313.859933 299.858991 313.859933 
C 298.959644 313.859933 298.09701 314.217247 297.461076 314.853182 
C 296.825141 315.489117 296.467826 316.35175 296.467826 317.251098 
C 296.467826 318.150445 296.825141 319.013079 297.461076 319.649014 
C 298.09701 320.284948 298.959644 320.642263 299.858991 320.642263 
L 299.858991 320.642263 
z
" clip-path="url(#pf85956dec2)" style="fill: none; stroke: #eb6834; stroke-width: 1.4"/>
   </g>
   <g id="PathCollection_99">
    <path d="M 299.858991 316.372221 
C 300.758339 316.372221 301.620973 316.014906 302.256907 315.378972 
C 302.892842 314.743037 303.250156 313.880403 303.250156 312.981056 
C 303.250156 312.081708 302.892842 311.219075 302.256907 310.58314 
C 301.620973 309.947205 300.758339 309.589891 299.858991 309.589891 
C 298.959644 309.589891 298.09701 309.947205 297.461076 310.58314 
C 296.825141 311.219075 296.467826 312.081708 296.467826 312.981056 
C 296.467826 313.880403 296.825141 314.743037 297.461076 315.378972 
C 298.09701 316.014906 298.959644 316.372221 299.858991 316.372221 
L 299.858991 316.372221 
z
" clip-path="url(#pf85956dec2)" style="fill: none; stroke: #eb6834; stroke-width: 1.4"/>
   </g>
   <g id="PathCollection_100">
    <path d="M 299.858991 312.102179 
C 300.758339 312.102179 301.620973 311.744864 302.256907 311.10893 
C 302.892842 310.472995 303.250156 309.610361 303.250156 308.711014 
C 303.250156 307.811666 302.892842 306.949033 302.256907 306.313098 
C 301.620973 305.677163 300.758339 305.319849 299.858991 305.319849 
C 298.959644 305.319849 298.09701 305.677163 297.461076 306.313098 
C 296.825141 306.949033 296.467826 307.811666 296.467826 308.711014 
C 296.467826 309.610361 296.825141 310.472995 297.461076 311.10893 
C 298.09701 311.744864 298.959644 312.102179 299.858991 312.102179 
L 299.858991 312.102179 
z
" clip-path="url(#pf85956dec2)" style="fill: none; stroke: #eb6834; stroke-width: 1.4"/>
   </g>
   <g id="PathCollection_101">
    <path d="M 299.858991 307.832137 
C 300.758339 307.832137 301.620973 307.474822 302.256907 306.838887 
C 302.892842 306.202953 303.250156 305.340319 303.250156 304.440972 
C 303.250156 303.541624 302.892842 302.678991 302.256907 302.043056 
C 301.620973 301.407121 300.758339 301.049807 299.858991 301.049807 
C 298.959644 301.049807 298.09701 301.407121 297.461076 302.043056 
C 296.825141 302.678991 296.467826 303.541624 296.467826 304.440972 
C 296.467826 305.340319 296.825141 306.202953 297.461076 306.838887 
C 298.09701 307.474822 298.959644 307.832137 299.858991 307.832137 
L 299.858991 307.832137 
z
" clip-path="url(#pf85956dec2)" style="fill: none; stroke: #eb6834; stroke-width: 1.4"/>
   </g>
   <g id="PathCollection_102">
    <path d="M 317.489906 333.452389 
C 318.389254 333.452389 319.251887 333.095074 319.887822 332.45914 
C 320.523757 331.823205 320.881071 330.960571 320.881071 330.061224 
C 320.881071 329.161876 320.523757 328.299243 319.887822 327.663308 
C 319.251887 327.027374 318.389254 326.670059 317.489906 326.670059 
C 316.590559 326.670059 315.727925 327.027374 315.09199 327.663308 
C 314.456056 328.299243 314.098741 329.161876 314.098741 330.061224 
C 314.098741 330.960571 314.456056 331.823205 315.09199 332.45914 
C 315.727925 333.095074 316.590559 333.452389 317.489906 333.452389 
L 317.489906 333.452389 
z
" clip-path="url(#pf85956dec2)" style="fill: none; stroke: #eb6834; stroke-width: 1.4"/>
   </g>
   <g id="PathCollection_103">
    <path d="M 317.489906 329.182347 
C 318.389254 329.182347 319.251887 328.825032 319.887822 328.189098 
C 320.523757 327.553163 320.881071 326.690529 320.881071 325.791182 
C 320.881071 324.891834 320.523757 324.029201 319.887822 323.393266 
C 319.251887 322.757331 318.389254 322.400017 317.489906 322.400017 
C 316.590559 322.400017 315.727925 322.757331 315.09199 323.393266 
C 314.456056 324.029201 314.098741 324.891834 314.098741 325.791182 
C 314.098741 326.690529 314.456056 327.553163 315.09199 328.189098 
C 315.727925 328.825032 316.590559 329.182347 317.489906 329.182347 
L 317.489906 329.182347 
z
" clip-path="url(#pf85956dec2)" style="fill: none; stroke: #eb6834; stroke-width: 1.4"/>
   </g>
   <g id="PathCollection_104">
    <path d="M 317.489906 324.912305 
C 318.389254 324.912305 319.251887 324.55499 319.887822 323.919056 
C 320.523757 323.283121 320.881071 322.420487 320.881071 321.52114 
C 320.881071 320.621792 320.523757 319.759159 319.887822 319.123224 
C 319.251887 318.487289 318.389254 318.129975 317.489906 318.129975 
C 316.590559 318.129975 315.727925 318.487289 315.09199 319.123224 
C 314.456056 319.759159 314.098741 320.621792 314.098741 321.52114 
C 314.098741 322.420487 314.456056 323.283121 315.09199 323.919056 
C 315.727925 324.55499 316.590559 324.912305 317.489906 324.912305 
L 317.489906 324.912305 
z
" clip-path="url(#pf85956dec2)" style="fill: none; stroke: #eb6834; stroke-width: 1.4"/>
   </g>
   <g id="PathCollection_105">
    <path d="M 335.120821 333.452389 
C 336.020168 333.452389 336.882802 333.095074 337.518737 332.45914 
C 338.154671 331.823205 338.511986 330.960571 338.511986 330.061224 
C 338.511986 329.161876 338.154671 328.299243 337.518737 327.663308 
C 336.882802 327.027374 336.020168 326.670059 335.120821 326.670059 
C 334.221474 326.670059 333.35884 327.027374 332.722905 327.663308 
C 332.086971 328.299243 331.729656 329.161876 331.729656 330.061224 
C 331.729656 330.960571 332.086971 331.823205 332.722905 332.45914 
C 333.35884 333.095074 334.221474 333.452389 335.120821 333.452389 
L 335.120821 333.452389 
z
" clip-path="url(#pf85956dec2)" style="fill: none; stroke: #eb6834; stroke-width: 1.4"/>
   </g>
   <g id="PathCollection_106">
    <path d="M 352.751736 333.452389 
C 353.651083 333.452389 354.513717 333.095074 355.149652 332.45914 
C 355.785586 331.823205 356.142901 330.960571 356.142901 330.061224 
C 356.142901 329.161876 355.785586 328.299243 355.149652 327.663308 
C 354.513717 327.027374 353.651083 326.670059 352.751736 326.670059 
C 351.852388 326.670059 350.989755 327.027374 350.35382 327.663308 
C 349.717885 328.299243 349.360571 329.161876 349.360571 330.061224 
C 349.360571 330.960571 349.717885 331.823205 350.35382 332.45914 
C 350.989755 333.095074 351.852388 333.452389 352.751736 333.452389 
L 352.751736 333.452389 
z
" clip-path="url(#pf85956dec2)" style="fill: none; stroke: #eb6834; stroke-width: 1.4"/>
   </g>
   <g id="PathCollection_107">
    <path d="M 352.751736 329.182347 
C 353.651083 329.182347 354.513717 328.825032 355.149652 328.189098 
C 355.785586 327.553163 356.142901 326.690529 356.142901 325.791182 
C 356.142901 324.891834 355.785586 324.029201 355.149652 323.393266 
C 354.513717 322.757331 353.651083 322.400017 352.751736 322.400017 
C 351.852388 322.400017 350.989755 322.757331 350.35382 323.393266 
C 349.717885 324.029201 349.360571 324.891834 349.360571 325.791182 
C 349.360571 326.690529 349.717885 327.553163 350.35382 328.189098 
C 350.989755 328.825032 351.852388 329.182347 352.751736 329.182347 
L 352.751736 329.182347 
z
" clip-path="url(#pf85956dec2)" style="fill: none; stroke: #eb6834; stroke-width: 1.4"/>
   </g>
   <g id="PathCollection_108">
    <path d="M 388.013565 333.452389 
C 388.912913 333.452389 389.775546 333.095074 390.411481 332.45914 
C 391.047416 331.823205 391.40473 330.960571 391.40473 330.061224 
C 391.40473 329.161876 391.047416 328.299243 390.411481 327.663308 
C 389.775546 327.027374 388.912913 326.670059 388.013565 326.670059 
C 387.114218 326.670059 386.251584 327.027374 385.61565 327.663308 
C 384.979715 328.299243 384.6224 329.161876 384.6224 330.061224 
C 384.6224 330.960571 384.979715 331.823205 385.61565 332.45914 
C 386.251584 333.095074 387.114218 333.452389 388.013565 333.452389 
L 388.013565 333.452389 
z
" clip-path="url(#pf85956dec2)" style="fill: none; stroke: #eb6834; stroke-width: 1.4"/>
   </g>
   <g id="text_13">
    <text style="font-size: 9px; font-family: 'DejaVu Sans', sans-serif; text-anchor: start; fill: #0b0b0b" x="304.26672" y="44.527528" transform="rotate(-0 304.26672 44.527528)">true onset (day 12)</text>
   </g>
   <g id="text_14">
    <text style="font-size: 11px; font-family: 'DejaVu Sans', sans-serif; text-anchor: start; fill: #0b0b0b" x="123.549844" y="19.158281" transform="rotate(-0 123.549844 19.158281)">Gravity-shift worlds: where agents and a statistical detector date the anomaly</text>
   </g>
  </g>
 </g>
 <defs>
  <clipPath id="pf85956dec2">
   <rect x="123.549844" y="31.158281" width="484.850156" height="316.485469"/>
  </clipPath>
 </defs>
</svg>
