<svg xmlns="http://www.w3.org/2000/svg" width="1200" height="566" viewBox="0 0 1200 566" font-family="system-ui, -apple-system, 'Segoe UI', sans-serif">
<rect width="1200" height="566" fill="#fcfcfb"/>
<text x="40.0" y="40.0" font-size="28.9" text-anchor="start" font-weight="600" fill="none" stroke="#fcfcfb" stroke-width="5.4" stroke-linejoin="round">A star around the seed, not a cascade</text><text x="40.0" y="40.0" font-size="28.9" text-anchor="start" font-weight="600" fill="#0b0b0b">A star around the seed, not a cascade</text>
<text x="40.0" y="61.0" font-size="20.4" text-anchor="start" fill="none" stroke="#fcfcfb" stroke-width="5.4" stroke-linejoin="round">Directed letter graphs. Two panels are real runs; the third is the structure that was never observed.</text><text x="40.0" y="61.0" font-size="20.4" text-anchor="start" fill="#52514e">Directed letter graphs. Two panels are real runs; the third is the structure that was never observed.</text>
<text x="210.0" y="112.0" font-size="19.6" text-anchor="middle" font-weight="600" fill="none" stroke="#fcfcfb" stroke-width="5.4" stroke-linejoin="round">Arm B · 8 grounded agents</text><text x="210.0" y="112.0" font-size="19.6" text-anchor="middle" font-weight="600" fill="#0b0b0b">Arm B · 8 grounded agents</text>
<text x="210.0" y="130.0" font-size="17.0" text-anchor="middle" fill="none" stroke="#fcfcfb" stroke-width="5.4" stroke-linejoin="round">gravity_shift-seed1000</text><text x="210.0" y="130.0" font-size="17.0" text-anchor="middle" fill="#898781">gravity_shift-seed1000</text>
<circle cx="210.0" cy="174.0" r="5.5" fill="#fcfcfb" stroke="#898781" stroke-width="1.8"/><text x="210.0" y="153.5" font-size="15.3" text-anchor="middle" fill="none" stroke="#fcfcfb" stroke-width="5.4" stroke-linejoin="round">theo</text><text x="210.0" y="153.5" font-size="15.3" text-anchor="middle" fill="#52514e">theo</text>
<circle cx="269.4" cy="198.6" r="5.5" fill="#fcfcfb" stroke="#898781" stroke-width="1.8"/><text x="286.4" y="185.1" font-size="15.3" text-anchor="start" fill="none" stroke="#fcfcfb" stroke-width="5.4" stroke-linejoin="round">ada</text><text x="286.4" y="185.1" font-size="15.3" text-anchor="start" fill="#52514e">ada</text>
<circle cx="294.0" cy="258.0" r="5.5" fill="#fcfcfb" stroke="#898781" stroke-width="1.8"/><text x="318.0" y="261.5" font-size="15.3" text-anchor="start" fill="none" stroke="#fcfcfb" stroke-width="5.4" stroke-linejoin="round">maya</text><text x="318.0" y="261.5" font-size="15.3" text-anchor="start" fill="#52514e">maya</text>
<circle cx="269.4" cy="317.4" r="5.5" fill="#fcfcfb" stroke="#898781" stroke-width="1.8"/><text x="286.4" y="337.9" font-size="15.3" text-anchor="start" fill="none" stroke="#fcfcfb" stroke-width="5.4" stroke-linejoin="round">samuel</text><text x="286.4" y="337.9" font-size="15.3" text-anchor="start" fill="#52514e">samuel</text>
<circle cx="210.0" cy="342.0" r="5.5" fill="#fcfcfb" stroke="#898781" stroke-width="1.8"/><text x="210.0" y="369.5" font-size="15.3" text-anchor="middle" fill="none" stroke="#fcfcfb" stroke-width="5.4" stroke-linejoin="round">elena</text><text x="210.0" y="369.5" font-size="15.3" text-anchor="middle" fill="#52514e">elena</text>
<circle cx="150.6" cy="317.4" r="5.5" fill="#fcfcfb" stroke="#898781" stroke-width="1.8"/><text x="133.6" y="337.9" font-size="15.3" text-anchor="end" fill="none" stroke="#fcfcfb" stroke-width="5.4" stroke-linejoin="round">leah</text><text x="133.6" y="337.9" font-size="15.3" text-anchor="end" fill="#52514e">leah</text>
<circle cx="126.0" cy="258.0" r="5.5" fill="#fcfcfb" stroke="#898781" stroke-width="1.8"/><text x="102.0" y="261.5" font-size="15.3" text-anchor="end" fill="none" stroke="#fcfcfb" stroke-width="5.4" stroke-linejoin="round">jamie</text><text x="102.0" y="261.5" font-size="15.3" text-anchor="end" fill="#52514e">jamie</text>
<circle cx="150.6" cy="198.6" r="5.5" fill="#fcfcfb" stroke="#898781" stroke-width="1.8"/><text x="133.6" y="185.1" font-size="15.3" text-anchor="end" fill="none" stroke="#fcfcfb" stroke-width="5.4" stroke-linejoin="round">tom</text><text x="133.6" y="185.1" font-size="15.3" text-anchor="end" fill="#52514e">tom</text>
<text x="210.0" y="392.0" font-size="18.7" text-anchor="middle" font-weight="600" fill="none" stroke="#fcfcfb" stroke-width="5.4" stroke-linejoin="round"><tspan fill="#eb6834">0 letters</tspan></text><text x="210.0" y="392.0" font-size="18.7" text-anchor="middle" font-weight="600" fill="#0b0b0b"><tspan fill="#eb6834">0 letters</tspan></text>
<text x="210.0" y="410.0" font-size="17.0" text-anchor="middle" fill="none" stroke="#fcfcfb" stroke-width="5.4" stroke-linejoin="round">and zero across all 20 runs</text><text x="210.0" y="410.0" font-size="17.0" text-anchor="middle" fill="#52514e">and zero across all 20 runs</text>
<text x="600.0" y="112.0" font-size="19.6" text-anchor="middle" font-weight="600" fill="none" stroke="#fcfcfb" stroke-width="5.4" stroke-linejoin="round">Arm D · 7 grounded + 1 seed</text><text x="600.0" y="112.0" font-size="19.6" text-anchor="middle" font-weight="600" fill="#0b0b0b">Arm D · 7 grounded + 1 seed</text>
<text x="600.0" y="130.0" font-size="17.0" text-anchor="middle" fill="none" stroke="#fcfcfb" stroke-width="5.4" stroke-linejoin="round">control-seed1006 — the most connected run</text><text x="600.0" y="130.0" font-size="17.0" text-anchor="middle" fill="#898781">control-seed1006 — the most connected run</text>
<line x1="600.0" y1="247.0" x2="600.0" y2="185.0" stroke="#eb6834" stroke-width="1.4"/><path d="M600.0 185.0 l-6 -3 v6 z" fill="#eb6834" transform="rotate(-90.0 600.0 185.0)"/>
<line x1="591.4" y1="251.1" x2="542.9" y2="212.5" stroke="#eb6834" stroke-width="1.4"/><path d="M542.9 212.5 l-6 -3 v6 z" fill="#eb6834" transform="rotate(-141.4 542.9 212.5)"/>
<line x1="589.3" y1="260.4" x2="528.8" y2="274.2" stroke="#eb6834" stroke-width="1.4"/><path d="M528.8 274.2 l-6 -3 v6 z" fill="#eb6834" transform="rotate(167.1 528.8 274.2)"/>
<line x1="610.7" y1="260.4" x2="671.2" y2="274.2" stroke="#eb6834" stroke-width="1.4"/><path d="M671.2 274.2 l-6 -3 v6 z" fill="#eb6834" transform="rotate(12.9 671.2 274.2)"/>
<line x1="608.6" y1="251.1" x2="657.1" y2="212.5" stroke="#eb6834" stroke-width="1.4"/><path d="M657.1 212.5 l-6 -3 v6 z" fill="#eb6834" transform="rotate(-38.6 657.1 212.5)"/>
<line x1="604.8" y1="267.9" x2="631.7" y2="323.8" stroke="#eb6834" stroke-width="1.4"/><path d="M631.7 323.8 l-6 -3 v6 z" fill="#eb6834" transform="rotate(64.3 631.7 323.8)"/>
<line x1="595.2" y1="267.9" x2="568.3" y2="323.8" stroke="#eb6834" stroke-width="1.4"/><path d="M568.3 323.8 l-6 -3 v6 z" fill="#eb6834" transform="rotate(115.7 568.3 323.8)"/>
<line x1="528.8" y1="274.2" x2="589.3" y2="260.4" stroke="#2a78d6" stroke-width="1.4"/><path d="M589.3 260.4 l-6 -3 v6 z" fill="#2a78d6" transform="rotate(-12.9 589.3 260.4)"/>
<path d="M634.4 343.5 Q655.3 245.4 606.1 181.9" fill="none" stroke="#2a78d6" stroke-width="1.4"/><path d="M606.1 181.9 l-6 -3 v6 z" fill="#2a78d6" transform="rotate(-127.7 606.1 181.9)"/>
<path d="M565.6 343.5 Q544.7 245.4 593.9 181.9" fill="none" stroke="#2a78d6" stroke-width="1.4"/><path d="M593.9 181.9 l-6 -3 v6 z" fill="#2a78d6" transform="rotate(-52.3 593.9 181.9)"/>
<path d="M525.7 210.6 Q600.0 167.6 657.0 200.6" fill="none" stroke="#2a78d6" stroke-width="1.4"/><path d="M657.0 200.6 l-6 -3 v6 z" fill="#2a78d6" transform="rotate(30.1 657.0 200.6)"/>
<circle cx="600.0" cy="174.0" r="5.5" fill="#fcfcfb" stroke="#898781" stroke-width="1.8"/><text x="600.0" y="153.5" font-size="15.3" text-anchor="middle" fill="none" stroke="#fcfcfb" stroke-width="5.4" stroke-linejoin="round">ada</text><text x="600.0" y="153.5" font-size="15.3" text-anchor="middle" fill="#52514e">ada</text>
<circle cx="665.7" cy="205.6" r="5.5" fill="#fcfcfb" stroke="#898781" stroke-width="1.8"/><text x="684.4" y="194.2" font-size="15.3" text-anchor="start" fill="none" stroke="#fcfcfb" stroke-width="5.4" stroke-linejoin="round">maya</text><text x="684.4" y="194.2" font-size="15.3" text-anchor="start" fill="#52514e">maya</text>
<circle cx="681.9" cy="276.7" r="5.5" fill="#fcfcfb" stroke="#898781" stroke-width="1.8"/><text x="705.3" y="285.5" font-size="15.3" text-anchor="start" fill="none" stroke="#fcfcfb" stroke-width="5.4" stroke-linejoin="round">samuel</text><text x="705.3" y="285.5" font-size="15.3" text-anchor="start" fill="#52514e">samuel</text>
<circle cx="636.4" cy="333.7" r="5.5" fill="#fcfcfb" stroke="#898781" stroke-width="1.8"/><text x="646.9" y="358.8" font-size="15.3" text-anchor="middle" fill="none" stroke="#fcfcfb" stroke-width="5.4" stroke-linejoin="round">elena</text><text x="646.9" y="358.8" font-size="15.3" text-anchor="middle" fill="#52514e">elena</text>
<circle cx="563.6" cy="333.7" r="5.5" fill="#fcfcfb" stroke="#898781" stroke-width="1.8"/><text x="553.1" y="358.8" font-size="15.3" text-anchor="middle" fill="none" stroke="#fcfcfb" stroke-width="5.4" stroke-linejoin="round">leah</text><text x="553.1" y="358.8" font-size="15.3" text-anchor="middle" fill="#52514e">leah</text>
<circle cx="518.1" cy="276.7" r="5.5" fill="#fcfcfb" stroke="#898781" stroke-width="1.8"/><text x="494.7" y="285.5" font-size="15.3" text-anchor="end" fill="none" stroke="#fcfcfb" stroke-width="5.4" stroke-linejoin="round">jamie</text><text x="494.7" y="285.5" font-size="15.3" text-anchor="end" fill="#52514e">jamie</text>
<circle cx="534.3" cy="205.6" r="5.5" fill="#fcfcfb" stroke="#898781" stroke-width="1.8"/><text x="515.6" y="194.2" font-size="15.3" text-anchor="end" fill="none" stroke="#fcfcfb" stroke-width="5.4" stroke-linejoin="round">tom</text><text x="515.6" y="194.2" font-size="15.3" text-anchor="end" fill="#52514e">tom</text>
<circle cx="600.0" cy="258.0" r="7" fill="#fcfcfb" stroke="#eb6834" stroke-width="2.5"/><text x="600.0" y="283.0" font-size="15.3" text-anchor="middle" fill="none" stroke="#fcfcfb" stroke-width="5.4" stroke-linejoin="round">theo</text><text x="600.0" y="283.0" font-size="15.3" text-anchor="middle" fill="#52514e">theo</text>
<text x="600.0" y="392.0" font-size="18.7" text-anchor="middle" font-weight="600" fill="none" stroke="#fcfcfb" stroke-width="5.4" stroke-linejoin="round">reach 1.000 · <tspan fill="#eb6834">depth 1.000</tspan></text><text x="600.0" y="392.0" font-size="18.7" text-anchor="middle" font-weight="600" fill="#0b0b0b">reach 1.000 · <tspan fill="#eb6834">depth 1.000</tspan></text>
<text x="600.0" y="410.0" font-size="17.0" text-anchor="middle" fill="none" stroke="#fcfcfb" stroke-width="5.4" stroke-linejoin="round">every agent is one hop from the seed</text><text x="600.0" y="410.0" font-size="17.0" text-anchor="middle" fill="#52514e">every agent is one hop from the seed</text>
<text x="990.0" y="112.0" font-size="19.6" text-anchor="middle" font-weight="600" fill="none" stroke="#fcfcfb" stroke-width="5.4" stroke-linejoin="round">What depth &gt; 1 looks like</text><text x="990.0" y="112.0" font-size="19.6" text-anchor="middle" font-weight="600" fill="#0b0b0b">What depth &gt; 1 looks like</text>
<text x="990.0" y="130.0" font-size="17.0" text-anchor="middle" fill="none" stroke="#fcfcfb" stroke-width="5.4" stroke-linejoin="round">schematic — not observed in any run</text><text x="990.0" y="130.0" font-size="17.0" text-anchor="middle" fill="#898781">schematic — not observed in any run</text>
<line x1="990" y1="185" x2="990" y2="217" stroke="#898781" stroke-width="1.4" stroke-dasharray="4 4"/>
<path d="M990 217 l-6 -3 v6 z" fill="#898781" transform="rotate(90 990 217)"/>
<text x="1005.0" y="206.0" font-size="15.3" text-anchor="start" fill="none" stroke="#fcfcfb" stroke-width="5.4" stroke-linejoin="round">hop 1</text><text x="1005.0" y="206.0" font-size="15.3" text-anchor="start" fill="#898781">hop 1</text>
<line x1="990" y1="241" x2="990" y2="273" stroke="#898781" stroke-width="1.4" stroke-dasharray="4 4"/>
<path d="M990 273 l-6 -3 v6 z" fill="#898781" transform="rotate(90 990 273)"/>
<text x="1005.0" y="262.0" font-size="15.3" text-anchor="start" fill="none" stroke="#fcfcfb" stroke-width="5.4" stroke-linejoin="round">hop 2</text><text x="1005.0" y="262.0" font-size="15.3" text-anchor="start" fill="#898781">hop 2</text>
<line x1="990" y1="297" x2="990" y2="329" stroke="#898781" stroke-width="1.4" stroke-dasharray="4 4"/>
<path d="M990 329 l-6 -3 v6 z" fill="#898781" transform="rotate(90 990 329)"/>
<text x="1005.0" y="318.0" font-size="15.3" text-anchor="start" fill="none" stroke="#fcfcfb" stroke-width="5.4" stroke-linejoin="round">hop 3</text><text x="1005.0" y="318.0" font-size="15.3" text-anchor="start" fill="#898781">hop 3</text>
<circle cx="990" cy="174" r="7" fill="#fcfcfb" stroke="#eb6834" stroke-width="2.5"/>
<text x="975.0" y="178.0" font-size="15.3" text-anchor="end" fill="none" stroke="#fcfcfb" stroke-width="5.4" stroke-linejoin="round">seed</text><text x="975.0" y="178.0" font-size="15.3" text-anchor="end" fill="#52514e">seed</text>
<circle cx="990" cy="230" r="5.5" fill="#fcfcfb" stroke="#898781" stroke-width="1.8"/>
<text x="975.0" y="234.0" font-size="15.3" text-anchor="end" fill="none" stroke="#fcfcfb" stroke-width="5.4" stroke-linejoin="round">agent 1</text><text x="975.0" y="234.0" font-size="15.3" text-anchor="end" fill="#52514e">agent 1</text>
<circle cx="990" cy="286" r="5.5" fill="#fcfcfb" stroke="#898781" stroke-width="1.8"/>
<text x="975.0" y="290.0" font-size="15.3" text-anchor="end" fill="none" stroke="#fcfcfb" stroke-width="5.4" stroke-linejoin="round">agent 2</text><text x="975.0" y="290.0" font-size="15.3" text-anchor="end" fill="#52514e">agent 2</text>
<circle cx="990" cy="342" r="5.5" fill="#fcfcfb" stroke="#898781" stroke-width="1.8"/>
<text x="975.0" y="346.0" font-size="15.3" text-anchor="end" fill="none" stroke="#fcfcfb" stroke-width="5.4" stroke-linejoin="round">agent 3</text><text x="975.0" y="346.0" font-size="15.3" text-anchor="end" fill="#52514e">agent 3</text>
<text x="990.0" y="392.0" font-size="18.7" text-anchor="middle" font-weight="600" fill="none" stroke="#fcfcfb" stroke-width="5.4" stroke-linejoin="round"><tspan fill="#898781">depth 3</tspan></text><text x="990.0" y="392.0" font-size="18.7" text-anchor="middle" font-weight="600" fill="#0b0b0b"><tspan fill="#898781">depth 3</tspan></text>
<text x="990.0" y="410.0" font-size="17.0" text-anchor="middle" fill="none" stroke="#fcfcfb" stroke-width="5.4" stroke-linejoin="round">a claim travelling a second hop</text><text x="990.0" y="410.0" font-size="17.0" text-anchor="middle" fill="#52514e">a claim travelling a second hop</text>
<line x1="40" y1="440" x2="1160" y2="440" stroke="#e2e0dc" stroke-width="1"/>
<line x1="46" y1="460" x2="72" y2="460" stroke="#eb6834" stroke-width="1.6"/>
<text x="80.0" y="464.0" font-size="17.8" text-anchor="start" fill="none" stroke="#fcfcfb" stroke-width="5.4" stroke-linejoin="round">letters from the communicative seed</text><text x="80.0" y="464.0" font-size="17.8" text-anchor="start" fill="#52514e">letters from the communicative seed</text>
<line x1="46" y1="488" x2="72" y2="488" stroke="#2a78d6" stroke-width="1.6"/>
<text x="80.0" y="492.0" font-size="17.8" text-anchor="start" fill="none" stroke="#fcfcfb" stroke-width="5.4" stroke-linejoin="round">letters between grounded agents — every one of them to an agent the seed had already reached directly</text><text x="80.0" y="492.0" font-size="17.8" text-anchor="start" fill="#52514e">letters between grounded agents — every one of them to an agent the seed had already reached directly</text>
<text x="40.0" y="530.0" font-size="18.7" text-anchor="start" fill="none" stroke="#fcfcfb" stroke-width="5.4" stroke-linejoin="round">Cascade depth was exactly 1.000 in every run of every arm. Grounded agents do write to each other,</text><text x="40.0" y="530.0" font-size="18.7" text-anchor="start" fill="#52514e">Cascade depth was exactly 1.000 in every run of every arm. Grounded agents do write to each other,</text>
<text x="40.0" y="554.0" font-size="18.7" text-anchor="start" fill="none" stroke="#fcfcfb" stroke-width="5.4" stroke-linejoin="round">so the graph densifies — but nothing ever travels a second hop.</text><text x="40.0" y="554.0" font-size="18.7" text-anchor="start" fill="#52514e">so the graph densifies — but nothing ever travels a second hop.</text>
</svg>